<mxfile host="app.diagrams.net" modified="2023-09-07T08:21:13.140Z" agent="Mozilla/5.0 (Windows NT 10.0; Win64; x64) AppleWebKit/537.36 (KHTML, like Gecko) Chrome/116.0.0.0 Safari/537.36 Edg/116.0.1938.69" etag="IXjbDI50l94VquRbwA6S" version="21.7.2" type="device">
  <diagram name="PÃ¡gina-1" id="FVufQOcQU-Bn6BT3GcNp">
    <mxGraphModel dx="1379" dy="573" grid="1" gridSize="10" guides="1" tooltips="1" connect="1" arrows="1" fold="1" page="1" pageScale="1" pageWidth="827" pageHeight="1169" math="0" shadow="0">
      <root>
        <mxCell id="0" />
        <mxCell id="1" parent="0" />
        <mxCell id="68BgN3hlOAyS0UJK8AbP-206" value="" style="edgeStyle=orthogonalEdgeStyle;rounded=0;orthogonalLoop=1;jettySize=auto;html=1;" edge="1" parent="1" source="68BgN3hlOAyS0UJK8AbP-212" target="68BgN3hlOAyS0UJK8AbP-214">
          <mxGeometry relative="1" as="geometry" />
        </mxCell>
        <mxCell id="68BgN3hlOAyS0UJK8AbP-207" style="edgeStyle=orthogonalEdgeStyle;rounded=0;orthogonalLoop=1;jettySize=auto;html=1;entryX=0.5;entryY=1;entryDx=0;entryDy=0;" edge="1" parent="1" source="68BgN3hlOAyS0UJK8AbP-212" target="68BgN3hlOAyS0UJK8AbP-215">
          <mxGeometry relative="1" as="geometry" />
        </mxCell>
        <mxCell id="68BgN3hlOAyS0UJK8AbP-208" style="edgeStyle=orthogonalEdgeStyle;rounded=0;orthogonalLoop=1;jettySize=auto;html=1;entryX=0.5;entryY=1;entryDx=0;entryDy=0;" edge="1" parent="1" source="68BgN3hlOAyS0UJK8AbP-212" target="68BgN3hlOAyS0UJK8AbP-213">
          <mxGeometry relative="1" as="geometry" />
        </mxCell>
        <mxCell id="68BgN3hlOAyS0UJK8AbP-209" style="edgeStyle=orthogonalEdgeStyle;rounded=0;orthogonalLoop=1;jettySize=auto;html=1;entryX=0.5;entryY=0;entryDx=0;entryDy=0;" edge="1" parent="1" source="68BgN3hlOAyS0UJK8AbP-212" target="68BgN3hlOAyS0UJK8AbP-226">
          <mxGeometry relative="1" as="geometry">
            <mxPoint x="411" y="700" as="targetPoint" />
          </mxGeometry>
        </mxCell>
        <mxCell id="68BgN3hlOAyS0UJK8AbP-210" style="edgeStyle=orthogonalEdgeStyle;rounded=0;orthogonalLoop=1;jettySize=auto;html=1;entryX=0.5;entryY=0;entryDx=0;entryDy=0;" edge="1" parent="1" source="68BgN3hlOAyS0UJK8AbP-212" target="68BgN3hlOAyS0UJK8AbP-222">
          <mxGeometry relative="1" as="geometry">
            <mxPoint x="780" y="700" as="targetPoint" />
          </mxGeometry>
        </mxCell>
        <mxCell id="68BgN3hlOAyS0UJK8AbP-211" style="edgeStyle=orthogonalEdgeStyle;rounded=0;orthogonalLoop=1;jettySize=auto;html=1;entryX=0.5;entryY=0;entryDx=0;entryDy=0;" edge="1" parent="1" source="68BgN3hlOAyS0UJK8AbP-212" target="68BgN3hlOAyS0UJK8AbP-228">
          <mxGeometry relative="1" as="geometry" />
        </mxCell>
        <mxCell id="68BgN3hlOAyS0UJK8AbP-212" value="Banco" style="whiteSpace=wrap;html=1;align=center;" vertex="1" parent="1">
          <mxGeometry x="550" y="610" width="100" height="40" as="geometry" />
        </mxCell>
        <mxCell id="68BgN3hlOAyS0UJK8AbP-213" value="Codigo" style="ellipse;whiteSpace=wrap;html=1;align=center;fontStyle=4;" vertex="1" parent="1">
          <mxGeometry x="650" y="530" width="100" height="40" as="geometry" />
        </mxCell>
        <mxCell id="68BgN3hlOAyS0UJK8AbP-214" value="Nombre" style="ellipse;whiteSpace=wrap;html=1;align=center;" vertex="1" parent="1">
          <mxGeometry x="550" y="530" width="100" height="40" as="geometry" />
        </mxCell>
        <mxCell id="68BgN3hlOAyS0UJK8AbP-215" value="Direccion" style="ellipse;whiteSpace=wrap;html=1;align=center;" vertex="1" parent="1">
          <mxGeometry x="450" y="530" width="100" height="40" as="geometry" />
        </mxCell>
        <mxCell id="68BgN3hlOAyS0UJK8AbP-216" value="Genero" style="ellipse;whiteSpace=wrap;html=1;align=center;" vertex="1" parent="1">
          <mxGeometry x="440" y="770" width="100" height="40" as="geometry" />
        </mxCell>
        <mxCell id="68BgN3hlOAyS0UJK8AbP-217" value="Fecha de nacimiento" style="ellipse;whiteSpace=wrap;html=1;align=center;" vertex="1" parent="1">
          <mxGeometry x="290" y="770" width="100" height="40" as="geometry" />
        </mxCell>
        <mxCell id="68BgN3hlOAyS0UJK8AbP-218" value="" style="edgeStyle=orthogonalEdgeStyle;rounded=0;orthogonalLoop=1;jettySize=auto;html=1;" edge="1" parent="1" source="68BgN3hlOAyS0UJK8AbP-222" target="68BgN3hlOAyS0UJK8AbP-229">
          <mxGeometry relative="1" as="geometry" />
        </mxCell>
        <mxCell id="68BgN3hlOAyS0UJK8AbP-219" style="edgeStyle=orthogonalEdgeStyle;rounded=0;orthogonalLoop=1;jettySize=auto;html=1;entryX=1;entryY=0.5;entryDx=0;entryDy=0;" edge="1" parent="1" source="68BgN3hlOAyS0UJK8AbP-222" target="68BgN3hlOAyS0UJK8AbP-233">
          <mxGeometry relative="1" as="geometry" />
        </mxCell>
        <mxCell id="68BgN3hlOAyS0UJK8AbP-220" style="edgeStyle=orthogonalEdgeStyle;rounded=0;orthogonalLoop=1;jettySize=auto;html=1;entryX=0;entryY=0.5;entryDx=0;entryDy=0;" edge="1" parent="1" source="68BgN3hlOAyS0UJK8AbP-222" target="68BgN3hlOAyS0UJK8AbP-232">
          <mxGeometry relative="1" as="geometry" />
        </mxCell>
        <mxCell id="68BgN3hlOAyS0UJK8AbP-221" style="edgeStyle=orthogonalEdgeStyle;rounded=0;orthogonalLoop=1;jettySize=auto;html=1;entryX=0.5;entryY=0;entryDx=0;entryDy=0;" edge="1" parent="1" source="68BgN3hlOAyS0UJK8AbP-222" target="68BgN3hlOAyS0UJK8AbP-231">
          <mxGeometry relative="1" as="geometry" />
        </mxCell>
        <mxCell id="68BgN3hlOAyS0UJK8AbP-222" value="Empresa" style="shape=ext;margin=3;double=1;whiteSpace=wrap;html=1;align=center;" vertex="1" parent="1">
          <mxGeometry x="750" y="700" width="100" height="40" as="geometry" />
        </mxCell>
        <mxCell id="68BgN3hlOAyS0UJK8AbP-223" style="edgeStyle=orthogonalEdgeStyle;rounded=0;orthogonalLoop=1;jettySize=auto;html=1;entryX=0.5;entryY=0;entryDx=0;entryDy=0;" edge="1" parent="1" source="68BgN3hlOAyS0UJK8AbP-226" target="68BgN3hlOAyS0UJK8AbP-230">
          <mxGeometry relative="1" as="geometry" />
        </mxCell>
        <mxCell id="68BgN3hlOAyS0UJK8AbP-224" style="edgeStyle=orthogonalEdgeStyle;rounded=0;orthogonalLoop=1;jettySize=auto;html=1;entryX=0;entryY=0.5;entryDx=0;entryDy=0;" edge="1" parent="1" source="68BgN3hlOAyS0UJK8AbP-226" target="68BgN3hlOAyS0UJK8AbP-216">
          <mxGeometry relative="1" as="geometry" />
        </mxCell>
        <mxCell id="68BgN3hlOAyS0UJK8AbP-225" style="edgeStyle=orthogonalEdgeStyle;rounded=0;orthogonalLoop=1;jettySize=auto;html=1;entryX=1;entryY=0.5;entryDx=0;entryDy=0;" edge="1" parent="1" source="68BgN3hlOAyS0UJK8AbP-226" target="68BgN3hlOAyS0UJK8AbP-217">
          <mxGeometry relative="1" as="geometry" />
        </mxCell>
        <mxCell id="68BgN3hlOAyS0UJK8AbP-226" value="Persona" style="shape=ext;margin=3;double=1;whiteSpace=wrap;html=1;align=center;" vertex="1" parent="1">
          <mxGeometry x="361" y="690" width="100" height="40" as="geometry" />
        </mxCell>
        <mxCell id="68BgN3hlOAyS0UJK8AbP-227" value="" style="edgeStyle=orthogonalEdgeStyle;rounded=0;orthogonalLoop=1;jettySize=auto;html=1;entryX=0.5;entryY=0;entryDx=0;entryDy=0;" edge="1" parent="1" source="68BgN3hlOAyS0UJK8AbP-228" target="68BgN3hlOAyS0UJK8AbP-238">
          <mxGeometry relative="1" as="geometry">
            <mxPoint x="600" y="930" as="targetPoint" />
          </mxGeometry>
        </mxCell>
        <mxCell id="68BgN3hlOAyS0UJK8AbP-228" value="Posee" style="shape=rhombus;perimeter=rhombusPerimeter;whiteSpace=wrap;html=1;align=center;" vertex="1" parent="1">
          <mxGeometry x="540" y="820" width="120" height="60" as="geometry" />
        </mxCell>
        <mxCell id="68BgN3hlOAyS0UJK8AbP-229" value="id" style="ellipse;whiteSpace=wrap;html=1;align=center;fontStyle=4;" vertex="1" parent="1">
          <mxGeometry x="880" y="700" width="100" height="40" as="geometry" />
        </mxCell>
        <mxCell id="68BgN3hlOAyS0UJK8AbP-230" value="id" style="ellipse;whiteSpace=wrap;html=1;align=center;fontStyle=4;" vertex="1" parent="1">
          <mxGeometry x="361" y="810" width="100" height="40" as="geometry" />
        </mxCell>
        <mxCell id="68BgN3hlOAyS0UJK8AbP-231" value="Numero de empleados" style="ellipse;whiteSpace=wrap;html=1;align=center;" vertex="1" parent="1">
          <mxGeometry x="750" y="810" width="100" height="40" as="geometry" />
        </mxCell>
        <mxCell id="68BgN3hlOAyS0UJK8AbP-232" value="Representante" style="ellipse;whiteSpace=wrap;html=1;align=center;" vertex="1" parent="1">
          <mxGeometry x="830" y="770" width="100" height="40" as="geometry" />
        </mxCell>
        <mxCell id="68BgN3hlOAyS0UJK8AbP-233" value="Tipo" style="ellipse;whiteSpace=wrap;html=1;align=center;" vertex="1" parent="1">
          <mxGeometry x="670" y="770" width="100" height="40" as="geometry" />
        </mxCell>
        <mxCell id="68BgN3hlOAyS0UJK8AbP-234" value="ID" style="ellipse;whiteSpace=wrap;html=1;align=center;fontStyle=4;" vertex="1" parent="1">
          <mxGeometry x="687" y="930" width="100" height="40" as="geometry" />
        </mxCell>
        <mxCell id="68BgN3hlOAyS0UJK8AbP-235" value="Tipo" style="ellipse;whiteSpace=wrap;html=1;align=center;" vertex="1" parent="1">
          <mxGeometry x="401" y="930" width="100" height="40" as="geometry" />
        </mxCell>
        <mxCell id="68BgN3hlOAyS0UJK8AbP-236" value="" style="edgeStyle=orthogonalEdgeStyle;rounded=0;orthogonalLoop=1;jettySize=auto;html=1;" edge="1" parent="1" source="68BgN3hlOAyS0UJK8AbP-238" target="68BgN3hlOAyS0UJK8AbP-235">
          <mxGeometry relative="1" as="geometry" />
        </mxCell>
        <mxCell id="68BgN3hlOAyS0UJK8AbP-237" value="" style="edgeStyle=orthogonalEdgeStyle;rounded=0;orthogonalLoop=1;jettySize=auto;html=1;" edge="1" parent="1" source="68BgN3hlOAyS0UJK8AbP-238" target="68BgN3hlOAyS0UJK8AbP-234">
          <mxGeometry relative="1" as="geometry" />
        </mxCell>
        <mxCell id="68BgN3hlOAyS0UJK8AbP-238" value="Entity" style="shape=ext;margin=3;double=1;whiteSpace=wrap;html=1;align=center;" vertex="1" parent="1">
          <mxGeometry x="550" y="930" width="100" height="40" as="geometry" />
        </mxCell>
      </root>
    </mxGraphModel>
  </diagram>
</mxfile>
